<svg xmlns="http://www.w3.org/2000/svg" width="33.51" height="33.508" viewBox="0 0 33.51 33.508">
  <defs>
    <style>
      .cls-1 {
        fill: #e84700;
        stroke: #e84700;
        stroke-width: 2px;
      }

      .cls-2 {
        fill: #fff;
      }
    </style>
  </defs>
  <g id="Component_44_3" data-name="Component 44 – 3" transform="translate(1.307 1.315)">
    <path id="Polygon_173" data-name="Polygon 173" class="cls-1" d="M15.448,0l2.265,1.935L20.481.843,22,3.411l2.972-.131.6,2.923,2.853.844-.375,2.961,2.425,1.728-1.313,2.678L30.9,16.838l-2.108,2.105.856,2.858-2.675,1.3-.115,2.982L23.9,26.45l-1.074,2.783-2.91-.62L18,30.9l-2.551-1.534L12.9,30.9,10.98,28.614l-2.91.62L7,26.45l-2.952-.362-.115-2.982L1.253,21.8l.856-2.858L0,16.838l1.734-2.425L.421,11.736l2.425-1.728L2.471,7.047,5.324,6.2l.6-2.923L8.9,3.411,10.415.843l2.768,1.092Z"/>
    <path id="music_note_FILL0_wght400_GRAD0_opsz24_2_" data-name="music_note_FILL0_wght400_GRAD0_opsz24 (2)" class="cls-2" d="M3.976,17.891a3.828,3.828,0,0,1-2.808-1.168,3.959,3.959,0,0,1,0-5.616A3.829,3.829,0,0,1,3.976,9.94a3.877,3.877,0,0,1,1.056.137,3.712,3.712,0,0,1,.932.41V0h5.964V2.162H7.952V13.916a3.828,3.828,0,0,1-1.168,2.808A3.828,3.828,0,0,1,3.976,17.891Z" transform="matrix(0.966, 0.259, -0.259, 0.966, 13.244, 5.264)"/>
  </g>
</svg>
