<svg id="Component_44_1" data-name="Component 44 – 1" xmlns="http://www.w3.org/2000/svg" width="1223.934" height="157.441" viewBox="0 0 1223.934 157.441">
  <defs>
    <style>
      .cls-1, .cls-2 {
        isolation: isolate;
      }

      .cls-2 {
        fill: #e84700;
        mix-blend-mode: multiply;
      }
    </style>
  </defs>
  <g id="Group_1032" data-name="Group 1032" class="cls-1" transform="translate(-2485.792 -11009.314) rotate(-3)">
    <path id="Subtraction_11" data-name="Subtraction 11" class="cls-2" d="M303.536,57.942h0l-28.686,0L263.606,40V57.94H239.115V2.091h29.952l34.469,55.85Zm227.815,0h-25.61l-9.851-28.393L485.808,57.94H460.975l21.032-55.85h28.548l20.8,55.85Zm-327.756,0h-25.61l-9.851-28.393L158.053,57.94H133.219l21.032-55.85H182.8l20.8,55.85Zm588.7,0H766.708v-.188c0-.094,0-.187,0-.282a61.267,61.267,0,0,1,4.607-23.827,53.853,53.853,0,0,1,12.475-18.2A55.372,55.372,0,0,1,802.114,3.833a61.918,61.918,0,0,1,44.224,0,55.291,55.291,0,0,1,18.279,11.614,53.911,53.911,0,0,1,12.458,18.2,61.312,61.312,0,0,1,4.6,23.827c0,.158,0,.312,0,.469H856.09c0-.195,0-.4,0-.626,0-23.044-16.5-33.54-31.824-33.54a33.865,33.865,0,0,0-11.512,1.994,30.639,30.639,0,0,0-10.269,6.118,29.534,29.534,0,0,0-7.373,10.447,38.215,38.215,0,0,0-2.825,14.981c0,.2,0,.412,0,.626Zm419.231,0h-63.294a30.12,30.12,0,0,1-7.133-10.12,31.53,31.53,0,0,1-2.489-12.5,33.128,33.128,0,0,1,3.208-14.376A34.457,34.457,0,0,1,1150.467,9.7a39.888,39.888,0,0,1,12.626-7.327,44.424,44.424,0,0,1,15.142-2.618,52.38,52.38,0,0,1,17.633,2.786,35.76,35.76,0,0,1,12.046,7.1,33.549,33.549,0,0,1,7.307,9.528,35.811,35.811,0,0,1,3.417,10.069l-22.151,6.24a16.251,16.251,0,0,0-1.319-4.341,15.707,15.707,0,0,0-3.147-4.531,15.981,15.981,0,0,0-5.516-3.566,23.061,23.061,0,0,0-8.427-1.445,19.174,19.174,0,0,0-6.247,1,14.968,14.968,0,0,0-4.77,2.649,11.9,11.9,0,0,0-3.044,3.79,9.8,9.8,0,0,0-1.07,4.419,9.313,9.313,0,0,0,2.594,6.766c1.83,1.871,4.631,3.163,8.326,3.842l14.82,2.808a50.435,50.435,0,0,1,13.119,4.235,36.8,36.8,0,0,1,9.719,6.84Zm-95.692,0H1050V2.091h70.043V25.335h-45.395v21.06h41.183V57.939h0Zm-142.471,0h-72.5V2.091H944.7a40.628,40.628,0,0,1,14.82,2.647,32.849,32.849,0,0,1,11.31,7.3,32.092,32.092,0,0,1,7.215,10.984,36.909,36.909,0,0,1,2.535,13.7,35.689,35.689,0,0,1-1.87,11.642,30.56,30.56,0,0,1-5.35,9.575ZM925.515,23.463V50.295h14.508c4.852,0,8.864-1.308,11.6-3.783a12.564,12.564,0,0,0,4-9.633,14.747,14.747,0,0,0-1.012-5.584,11.216,11.216,0,0,0-2.986-4.224,13.429,13.429,0,0,0-4.887-2.674,22.383,22.383,0,0,0-6.715-.934ZM724.9,57.94H700.25V25.646H666.243V2.091h92.82V25.646H724.9V57.939Zm-75.036,0H625.215V2.091h24.648Zm-63.024,0H562.19V2.091h24.648Zm-176.592,0H385.6V25.646H351.59V2.091h92.821V25.646H410.247V57.939Zm-75.036,0H310.563V2.091H335.21Zm-309.658,0H-.033c0-.084,0-.167,0-.25v-.063A60.887,60.887,0,0,1,4.544,34.039,54.962,54.962,0,0,1,16.932,15.76,55.533,55.533,0,0,1,35.111,3.946,58.6,58.6,0,0,1,57.063-.249,62.155,62.155,0,0,1,78.62,3.339a47.936,47.936,0,0,1,15.3,9.087,47.292,47.292,0,0,1,14.625,24.609L85.3,44.366a26.544,26.544,0,0,0-2.394-6.442A25.861,25.861,0,0,0,77.85,31.2a25.511,25.511,0,0,0-8.39-5.287,34.119,34.119,0,0,0-12.4-2.143A32.4,32.4,0,0,0,45.887,25.8a30.6,30.6,0,0,0-10.138,6.189c-6.672,6.154-10.2,15.021-10.2,25.643,0,.1,0,.208,0,.312Z" transform="translate(1902.892 11188.371)"/>
    <path id="Subtraction_12" data-name="Subtraction 12" class="cls-2" d="M606.028,57.86a52.461,52.461,0,0,1-17.116-2.725,40.156,40.156,0,0,1-13.928-8.078,36.883,36.883,0,0,1-9.365-13.284,47.329,47.329,0,0,1-3.427-18.344V0H586.84V13.4a26.589,26.589,0,0,0,1.353,8.8,16.641,16.641,0,0,0,3.854,6.289,16.034,16.034,0,0,0,6.047,3.773,25.655,25.655,0,0,0,15.868,0,16.034,16.034,0,0,0,6.047-3.773,16.641,16.641,0,0,0,3.854-6.289,26.591,26.591,0,0,0,1.353-8.8V0h24.648V15.429a47.329,47.329,0,0,1-3.427,18.344,36.884,36.884,0,0,1-9.365,13.284,40.157,40.157,0,0,1-13.928,8.078A52.461,52.461,0,0,1,606.028,57.86ZM1179.8,57.7a55.7,55.7,0,0,1-19.748-3.339,40.91,40.91,0,0,1-13.752-8.516,38.384,38.384,0,0,1-8.312-11.442,37.215,37.215,0,0,1-3.427-12.115l22.621-5.459a20.42,20.42,0,0,0,6.142,13.318,19.771,19.771,0,0,0,6.954,4.166,29.339,29.339,0,0,0,9.835,1.548c9.477,0,15.6-4.531,15.6-11.543a9.5,9.5,0,0,0-3.178-7.118,17.605,17.605,0,0,0-8.677-3.959l-15.133-2.808A46.342,46.342,0,0,1,1156.787,6.5,35.331,35.331,0,0,1,1147.6,0h63.3a30.836,30.836,0,0,1,7.312,10.418,31.375,31.375,0,0,1,2.459,12.342,31.929,31.929,0,0,1-2.679,12.765,34.07,34.07,0,0,1-7.871,11.2,38.1,38.1,0,0,1-12.814,7.954A49.2,49.2,0,0,1,1179.8,57.7Zm-355.524,0a60.888,60.888,0,0,1-22.157-4.08,55.439,55.439,0,0,1-18.325-11.6,53.775,53.775,0,0,1-12.475-18.15A60.87,60.87,0,0,1,766.707.14V0h25.584a38.027,38.027,0,0,0,2.829,14.949,29.277,29.277,0,0,0,7.374,10.389A30.58,30.58,0,0,0,812.762,31.4a34.2,34.2,0,0,0,11.51,1.969,33.754,33.754,0,0,0,11.42-1.969,30.5,30.5,0,0,0,10.221-6.062,29.329,29.329,0,0,0,7.357-10.389A38.07,38.07,0,0,0,856.1,0h25.584V.14a60.912,60.912,0,0,1-4.6,23.737,53.835,53.835,0,0,1-12.458,18.15,55.36,55.36,0,0,1-18.279,11.6A60.47,60.47,0,0,1,824.271,57.7Zm-766.9,0c-15.7,0-30.129-5.6-40.638-15.776A53.534,53.534,0,0,1,4.462,23.811,61.171,61.171,0,0,1-.032.3q0-.148,0-.3H25.553c0,.1,0,.2,0,.3A35.759,35.759,0,0,0,28.2,14.168a30.127,30.127,0,0,0,7.064,10.289,30.713,30.713,0,0,0,10.164,6.4,33.06,33.06,0,0,0,11.949,2.2A34.305,34.305,0,0,0,69.7,30.933a26.891,26.891,0,0,0,8.563-5.267,28.646,28.646,0,0,0,8.132-13.357l23.556,6.708a49.345,49.345,0,0,1-4.9,12.495,50.462,50.462,0,0,1-9.86,12.582,49.169,49.169,0,0,1-15.622,9.716A61.046,61.046,0,0,1,57.376,57.7Zm953.472-.936a15.245,15.245,0,0,1-6.172-1.3,16.193,16.193,0,0,1-5.06-3.512,16.488,16.488,0,0,1-3.422-5.121,15.67,15.67,0,0,1,0-12.3,16.109,16.109,0,0,1,8.482-8.482,15.676,15.676,0,0,1,6.172-1.258,15.844,15.844,0,0,1,6.2,1.258,16.26,16.26,0,0,1,5.114,3.422,16.05,16.05,0,0,1,3.476,5.06,15.4,15.4,0,0,1,0,12.3,16.725,16.725,0,0,1-8.589,8.634A15.407,15.407,0,0,1,1010.848,56.768Zm-459.108-1.4H524.908L516.952,32.9H474.207l-7.956,22.464h-25.9L461.205,0h24.821L482.32,10.436h26.832L505.531,0h25.593L551.74,55.364Zm-327.756,0H197.151L189.2,32.9H146.452L138.5,55.364H112.6L133.45,0h24.82l-3.706,10.436H181.4L177.775,0h25.594l20.615,55.364Zm701.531,0H900.868V0h72.988a31.054,31.054,0,0,1-6.6,6.234,35.554,35.554,0,0,1-8.513,4.358l22.463,44.771-27.143,0L934.251,14.18h-8.735V55.364Zm194.688,0H1050V0h65.831V10.749h-41.184V31.964H1120.2v23.4h0Zm-395.3,0H700.251V0H724.9Zm-314.652,0H385.6V0h24.648Zm-75.037,0H309.16L274.467,0H303.16l7.4,12V0h24.647Zm-71.6,0H239.116V0h24.492Z" transform="translate(1902.896 11223.944)"/>
  </g>
</svg>
