<svg width="1em" height="1em" viewBox="0 0 36 6" fill="none" xmlns="http://www.w3.org/2000/svg">
  <g clip-path="url(#clip0_63_2)">
    <g style="mix-blend-mode: multiply">
      <path
        d="M9.00637 3.80652L8.16378 3.85068L7.80589 3.34097L7.8335 3.86793L7.11413 3.90563L7.02816 2.26517L7.90794 2.21906L9.00637 3.80652ZM15.698 3.45582L14.9457 3.49525L14.6127 2.67642L14.3603 3.52587L13.6308 3.5641L14.1626 1.89124L15.0012 1.84729L15.6981 3.45576L15.698 3.45582ZM6.0708 3.96036L5.31856 3.99979L4.9855 3.18096L4.73309 4.03041L4.00364 4.06864L4.53544 2.39578L5.37401 2.35183L6.07094 3.9603L6.0708 3.96036ZM23.3627 3.05413L22.6111 3.09352L22.6104 3.07972C22.5958 2.83984 22.6294 2.59947 22.7091 2.37275C22.7824 2.16678 22.8977 1.97822 23.0475 1.81896C23.1949 1.66276 23.3717 1.53725 23.5678 1.44967C23.9777 1.26785 24.4402 1.24361 24.8668 1.3816C25.0706 1.44834 25.2591 1.55471 25.4216 1.6946C25.587 1.83742 25.7212 2.01289 25.8156 2.21001C25.9184 2.42719 25.9768 2.66273 25.9874 2.9028L25.9881 2.91657L25.2366 2.95596L25.2356 2.93757C25.2001 2.2607 24.6993 1.9778 24.2492 2.00139C24.1339 2.00721 24.0206 2.03303 23.9141 2.07768C23.8048 2.12303 23.7055 2.18947 23.6219 2.27319C23.5327 2.36335 23.4642 2.47196 23.4214 2.5914C23.3718 2.734 23.3514 2.88514 23.3615 3.03579L23.3625 3.05418L23.3627 3.05413ZM35.6768 2.40878L33.8177 2.50621C33.7236 2.42741 33.647 2.32992 33.5926 2.21994C33.5374 2.10638 33.5059 1.98274 33.5002 1.85661C33.4919 1.7106 33.5165 1.56459 33.5723 1.4294C33.6265 1.29967 33.7072 1.18264 33.809 1.08576C33.9135 0.986087 34.0354 0.906538 34.1686 0.851106C34.3086 0.792355 34.4577 0.758445 34.6094 0.750898C34.7853 0.739112 34.9619 0.75761 35.1316 0.805587C35.2645 0.844303 35.3884 0.908872 35.4963 0.995593C35.5883 1.07061 35.666 1.16161 35.7256 1.26421C35.7785 1.35474 35.8176 1.45265 35.8415 1.55471L35.2005 1.77209C35.1913 1.72835 35.176 1.68611 35.155 1.64662C35.1297 1.59834 35.0961 1.55492 35.0556 1.51837C35.0071 1.47503 34.95 1.44226 34.8881 1.42212C34.8074 1.39681 34.7227 1.38682 34.6384 1.39265C34.576 1.39548 34.5145 1.40865 34.4564 1.43164C34.4062 1.45145 34.3601 1.48031 34.3204 1.51679C34.2848 1.5493 34.2564 1.58879 34.2368 1.6328C34.2184 1.67408 34.21 1.7191 34.2122 1.76424C34.2129 1.80085 34.2209 1.83694 34.2358 1.87039C34.2506 1.90384 34.2721 1.93396 34.2988 1.95899C34.3554 2.01113 34.4397 2.04477 34.5493 2.05902L34.9889 2.11869C35.1237 2.13532 35.2555 2.17038 35.3808 2.22289C35.4889 2.26843 35.5888 2.33123 35.6768 2.40884L35.6768 2.40878ZM32.866 2.55609L30.9323 2.65743L30.8463 1.01692L32.9037 0.909093L32.9395 1.59184L31.6061 1.66172L31.6385 2.28032L32.8482 2.21692L32.8659 2.556L32.866 2.55609ZM28.6812 2.7754L26.5517 2.88701L26.4657 1.24649L27.7533 1.17901C27.9019 1.16979 28.051 1.18842 28.1927 1.23395C28.3196 1.27521 28.4365 1.34229 28.5362 1.43096C28.6331 1.51791 28.711 1.62397 28.765 1.74249C28.8219 1.86805 28.8543 2.0033 28.8605 2.141C28.8674 2.2572 28.8549 2.37374 28.8235 2.48584C28.7939 2.59013 28.7457 2.6882 28.6811 2.77532L28.6812 2.7754ZM27.2227 1.8363L27.264 2.62444L27.6902 2.60211C27.8327 2.59464 27.9485 2.55004 28.0251 2.47313C28.0619 2.43511 28.0901 2.38962 28.1078 2.33974C28.1255 2.28986 28.1323 2.23676 28.1277 2.18403C28.1256 2.1279 28.1126 2.07273 28.0894 2.02156C28.0677 1.97494 28.0355 1.93403 27.9952 1.90209C27.9515 1.86836 27.9012 1.84416 27.8475 1.83107C27.7826 1.81532 27.7156 1.80955 27.6489 1.81397L27.2227 1.8363ZM21.3831 3.15782L20.6591 3.19577L20.6094 2.24719L19.6105 2.29954L19.5742 1.60766L22.3006 1.46478L22.3369 2.15666L21.3334 2.20925L21.3831 3.15782ZM19.1791 3.27333L18.4551 3.31127L18.3691 1.67082L19.0931 1.63288L19.1791 3.27333ZM17.3279 3.37035L16.6038 3.40829L16.5179 1.76784L17.2418 1.7299L17.3279 3.37035ZM12.1408 3.64219L11.4168 3.68013L11.3671 2.73156L10.3681 2.78391L10.3319 2.09203L13.0583 1.94914L13.0946 2.64103L12.0911 2.69362L12.1408 3.64216L12.1408 3.64219ZM9.93679 3.7577L9.21277 3.79564L9.1268 2.15519L9.85076 2.11725L9.93679 3.7577ZM0.841193 4.23438L0.0896247 4.27377L0.0891429 4.26457C0.0750374 4.02707 0.108397 3.78914 0.187273 3.56467C0.26042 3.35854 0.374637 3.1694 0.523007 3.0087C0.668629 2.85102 0.843897 2.7236 1.03879 2.6337C1.23953 2.54089 1.45625 2.48759 1.67713 2.47669C1.89263 2.46284 2.10888 2.48729 2.31585 2.54889C2.48415 2.60038 2.64132 2.68292 2.77925 2.79225C3.00368 2.9718 3.16698 3.21645 3.24671 3.49258L2.57522 3.7437C2.55663 3.67864 2.52966 3.61627 2.49498 3.55816C2.45274 3.48667 2.39908 3.42258 2.33612 3.36844C2.26139 3.30478 2.1749 3.25641 2.08154 3.22606C1.96281 3.18878 1.83819 3.17391 1.71402 3.1822C1.60199 3.18847 1.49194 3.21448 1.38896 3.25903C1.2809 3.30537 1.18297 3.37243 1.1007 3.45642C0.914199 3.64746 0.82422 3.91334 0.840572 4.22534L0.841052 4.2345L0.841193 4.23438Z"
        fill="var(--color-primary)"
      />
    </g>
    <g style="mix-blend-mode: multiply">
      <path
        d="M17.9456 4.38375C17.7748 4.39409 17.6035 4.37594 17.4387 4.33006C17.285 4.28731 17.1417 4.21389 17.0172 4.11423C16.8919 4.0125 16.791 3.88413 16.7216 3.73845C16.6437 3.57092 16.5999 3.38955 16.5927 3.20491L16.569 2.75171L17.293 2.71377L17.3136 3.10737C17.3168 3.19522 17.3348 3.2819 17.3669 3.36377C17.3939 3.43181 17.4359 3.49291 17.4898 3.54256C17.5425 3.58973 17.6052 3.62443 17.6732 3.64408C17.8272 3.68539 17.9904 3.67684 18.1393 3.61965C18.2048 3.593 18.2636 3.55194 18.3111 3.49952C18.3594 3.44451 18.3948 3.37935 18.4146 3.30886C18.4379 3.22409 18.4468 3.136 18.4408 3.04829L18.4202 2.65469L19.1442 2.61675L19.1679 3.06995C19.1801 3.25432 19.1555 3.43928 19.0955 3.61404C19.0418 3.76617 18.9548 3.90439 18.8409 4.01865C18.7275 4.13078 18.5925 4.21879 18.4442 4.27736C18.2851 4.34022 18.1166 4.37618 17.9456 4.38375ZM34.7988 3.4958C34.6013 3.50879 34.403 3.48586 34.2136 3.42813C34.0607 3.38032 33.919 3.30248 33.7966 3.19916C33.69 3.10854 33.6013 2.99891 33.5348 2.87586C33.4754 2.76663 33.4351 2.64807 33.4155 2.52529L34.0715 2.33012C34.0889 2.47785 34.1605 2.61388 34.2725 2.71185C34.3342 2.76322 34.4059 2.80124 34.4831 2.82351C34.5778 2.85014 34.6763 2.8604 34.7744 2.85384C35.0528 2.83926 35.2256 2.69674 35.2148 2.49078C35.2129 2.4513 35.2026 2.41269 35.1846 2.37749C35.1666 2.3423 35.1414 2.31131 35.1105 2.28659C35.0347 2.22892 34.9444 2.19331 34.8496 2.18366L34.4007 2.12448C34.278 2.10844 34.158 2.07576 34.044 2.02733C33.9419 1.98373 33.8474 1.92405 33.7642 1.85055L35.6235 1.75311C35.7201 1.83424 35.7987 1.93462 35.8543 2.04786C35.9086 2.16005 35.9397 2.28208 35.9455 2.40659C35.9522 2.53567 35.932 2.66472 35.8865 2.78567C35.839 2.91267 35.7662 3.02871 35.6725 3.12676C35.5693 3.23463 35.4455 3.32077 35.3084 3.38012C35.147 3.44928 34.9743 3.48848 34.7988 3.4958ZM24.356 4.04309C24.1335 4.05564 23.9107 4.02656 23.6989 3.95735C23.4948 3.89081 23.3058 3.78461 23.1428 3.64484C22.9773 3.50257 22.843 3.3276 22.7484 3.13092C22.6455 2.91476 22.587 2.68016 22.5764 2.441L22.5762 2.43689L23.3277 2.3975C23.3334 2.54808 23.3695 2.69596 23.4338 2.83224C23.4888 2.94607 23.5682 3.04637 23.6664 3.12605C23.7584 3.20001 23.864 3.25514 23.9773 3.2883C24.0879 3.32113 24.2033 3.3347 24.3184 3.32842C24.4327 3.32263 24.5452 3.29712 24.6508 3.253C24.7596 3.2081 24.8584 3.14226 24.9417 3.05921C25.0308 2.96964 25.0991 2.8616 25.1418 2.74273C25.1915 2.60046 25.2119 2.44963 25.2019 2.29928L25.9534 2.25989L25.9536 2.264C25.9682 2.503 25.9347 2.74249 25.8551 2.96831C25.7816 3.17373 25.6666 3.36176 25.5171 3.52061C25.37 3.67653 25.1936 3.80188 24.998 3.88948C24.7954 3.98032 24.5776 4.03242 24.3559 4.0431L24.356 4.04309ZM1.82982 5.22364C1.36866 5.2478 0.936214 5.10553 0.611868 4.8228C0.448432 4.68033 0.316181 4.50563 0.223402 4.30967C0.122862 4.09508 0.0657028 3.86274 0.0552076 3.626L0.0547458 3.61718L0.806255 3.5778L0.806717 3.58661C0.812621 3.72628 0.846311 3.86338 0.905815 3.98988C0.959106 4.10152 1.03518 4.20077 1.12915 4.28123C1.2196 4.35841 1.3244 4.41698 1.43754 4.45357C1.5518 4.49074 1.67195 4.50641 1.79191 4.49979C1.91545 4.49488 2.03703 4.4673 2.1506 4.41844C2.24157 4.37827 2.32416 4.32131 2.39402 4.25055C2.50292 4.13845 2.57851 3.99828 2.61232 3.84569L3.31456 4.00647C3.29024 4.13642 3.24829 4.26243 3.18986 4.38103C3.12079 4.52282 3.02957 4.6527 2.91961 4.76578C2.79243 4.89593 2.64182 5.00091 2.4757 5.07521C2.27148 5.16433 2.05246 5.21467 1.82982 5.22364ZM29.8347 3.72839C29.7723 3.73171 29.7099 3.72194 29.6515 3.69971C29.5945 3.67807 29.5422 3.64569 29.4974 3.60434C29.4525 3.56319 29.4157 3.51395 29.389 3.45919C29.3617 3.40336 29.3459 3.34257 29.3426 3.28048C29.3394 3.21839 29.3487 3.15628 29.3701 3.0979C29.4121 2.98337 29.4967 2.88945 29.6062 2.8357C29.6622 2.80824 29.7232 2.79244 29.7855 2.78925C29.8481 2.78592 29.9107 2.79524 29.9696 2.81665C30.0268 2.83736 30.0796 2.8688 30.1251 2.9093C30.1706 2.94954 30.2079 2.99819 30.2349 3.05257C30.2628 3.10826 30.2788 3.16908 30.282 3.23125C30.2853 3.29341 30.2757 3.35557 30.2539 3.41386C30.2106 3.52968 30.1253 3.62494 30.0149 3.68069C29.9588 3.70894 29.8975 3.72522 29.8348 3.72851L29.8347 3.72839ZM16.3472 4.39401L15.5591 4.43531L15.2908 3.78772L14.0352 3.85353L13.8361 4.52561L13.0754 4.56548L13.6027 2.90717L14.3317 2.86896L14.239 3.1812L15.0271 3.1399L14.9047 2.83893L15.6564 2.79954L16.3472 4.39401ZM6.72 4.89855L5.93184 4.93985L5.66371 4.29226L4.40807 4.35806L4.20908 5.03014L3.44832 5.07001L3.97552 3.41171L4.70456 3.3735L4.61176 3.68574L5.40002 3.64443L5.27748 3.34347L6.02925 3.30407L6.72 4.89855ZM27.3261 3.81863L26.6021 3.85657L26.5169 2.23036L28.6608 2.118C28.6092 2.19111 28.5471 2.25623 28.4765 2.31128C28.4021 2.36906 28.3203 2.41653 28.2332 2.45239L28.9619 3.73287L28.1646 3.77465L27.5193 2.59548L27.2627 2.60893L27.3261 3.81863ZM33.0447 3.51893L30.9826 3.627L30.8974 2.00079L32.831 1.89945L32.8476 2.21518L31.6379 2.27858L31.6705 2.90173L33.0086 2.83161L33.0446 3.51894L33.0447 3.51893ZM21.4335 4.12745L20.7094 4.16539L20.6242 2.53919L21.3482 2.50124L21.4335 4.12745ZM12.1912 4.61181L11.4672 4.64976L11.3819 3.02355L12.1059 2.98561L12.1912 4.61181ZM9.98717 4.72732L9.22188 4.76743L8.11762 3.19463L8.96042 3.15046L9.19625 3.49154L9.17778 3.13907L9.90173 3.10113L9.98717 4.72732ZM7.88406 4.83754L7.16448 4.87525L7.07925 3.24905L7.79865 3.21134L7.88406 4.83754Z"
        fill="var(--color-primary)"
      />
    </g>
  </g>
  <defs>
    <clipPath id="clip0_63_2">
      <rect width="36" height="6" fill="white" />
    </clipPath>
  </defs>
</svg>
